<?xml version="1.0" encoding="UTF-8"?>
<svg width="300" height="300" xmlns="http://www.w3.org/2000/svg" xmlns:svg="http://www.w3.org/2000/svg" xmlns:xlink="http://www.w3.org/1999/xlink">
 <title>dark button new</title>
 <defs>
  <filter color-interpolation-filters="sRGB" id="filter5863" x="-0.12" width="1.24" y="-0.12" height="1.24">
   <feGaussianBlur stdDeviation="17.149999" id="feGaussianBlur5865"/>
  </filter>
  <linearGradient xlink:href="#linearGradient5560" id="linearGradient6736" x1="0.316941" y1="0.110886" x2="0.65287" y2="0.658316"/>
  <linearGradient id="linearGradient5560">
   <stop offset="0" id="stop5562" stop-color="#ffffff"/>
   <stop offset="1" id="stop5564" stop-opacity="0" stop-color="#ffffff"/>
  </linearGradient>
  <linearGradient id="svg_3">
   <stop offset="0" stop-opacity="0.996094" stop-color="#ffff56"/>
   <stop offset="1" stop-opacity="0.996094" stop-color="#ffffff"/>
  </linearGradient>
 </defs>
 <metadata id="metadata6796">image/svg+xml</metadata>
 <g>
  <title>Layer 1</title>
  <path d="m251.2258,148c0,57.01001 -46.215759,103.2258 -103.2258,103.2258c-57.01004,0 -103.225811,-46.21579 -103.225811,-103.2258c0,-57.010017 46.215771,-103.22583 103.225811,-103.22583c57.01004,0 103.2258,46.215813 103.2258,103.22583c0,0 0,0 0,0" id="path6704" filter="url(#filter5863)" stroke-width="4" fill-rule="nonzero" fill="#000000"/>
  <path d="m214.054031,147.903656c0,36.427399 -29.530243,65.957657 -65.957642,65.957657c-36.427406,0 -65.957657,-29.530258 -65.957657,-65.957657c0,-36.427383 29.530251,-65.957649 65.957657,-65.957649c36.427399,0 65.957642,29.530273 65.957642,65.957649c0,0 0,0 0,0" id="path6706" stroke-dashoffset="0" stroke-miterlimit="4" stroke-linejoin="round" stroke-linecap="round" stroke-width="3.320313" stroke="#ff9955" fill-rule="nonzero" fill="#ffeeaa"/>
  <path id="path6708" d="m251.399994,147.903992c0,57.053009 -46.250992,103.303009 -103.304001,103.303009c-57.052589,0 -103.303093,-46.25 -103.303093,-103.303009c0,-57.053291 46.250504,-103.30389 103.303093,-103.30389c57.053009,0 103.304001,46.250599 103.304001,103.30389c0,0 0,0 0,0" stroke-dashoffset="0" stroke-miterlimit="4" stroke-linejoin="round" stroke-linecap="round" stroke-width="6.640625" stroke="#191919" fill-rule="nonzero" fill="#191919"/>
  <path d="m86.835197,39.659c46.035805,-23.8978 76.971809,3.844601 87.94381,28.310497c-105.455307,9.653206 -99.512306,57.754501 -113.242607,126.494507c-43.7502,-41.934006 -42.001299,-119.868904 25.298798,-154.805004l0,0z" id="path6720" stroke-width="4" fill="url(#linearGradient6736)" opacity="0.7" transform="translate(10) translate(10) translate(0, 10) translate(0, 10)"/>
  <path transform="translate(0, 10) translate(0, 10) translate(0, -10) translate(0, -10)" id="svg_2" d="m106.927734,132.978577l0,30.705917l17.479401,0l26.168137,21.489273l0.014923,-73.684418l-26.171249,21.489227l-17.491211,0zm53.696533,-3.53064c-1.527924,-1.513168 -3.983185,-1.513168 -5.503754,0.007385c-1.515961,1.520569 -1.515961,3.983215 0.009003,5.506744l0,-0.007584c3.355484,3.360107 5.424957,7.967682 5.424957,13.089935c0,5.116501 -2.065033,9.70929 -5.417755,13.069336c-1.532166,1.513153 -1.532166,3.974136 -0.007202,5.503601c0.758087,0.75798 1.75351,1.139328 2.748749,1.139328c0.999893,0 1.9953,-0.381348 2.753418,-1.139328c4.751373,-4.745621 7.699005,-11.336685 7.696167,-18.572937c0.002838,-7.252426 -2.955078,-13.852432 -7.703583,-18.596481zm8.924225,-8.921562c-1.527771,-1.520393 -3.9814,-1.520393 -5.494553,0c-1.525024,1.520699 -1.525024,3.986153 0,5.499321c5.638565,5.642944 9.115784,13.404449 9.115784,22.014343c0,8.602417 -3.477219,16.359329 -9.108444,22.006912c-1.523499,1.516159 -1.523499,3.977203 0,5.49794c0.758133,0.759308 1.75354,1.140594 2.753372,1.140594c0.995453,0 1.990891,-0.381287 2.748764,-1.140594c7.031555,-7.034729 11.39151,-16.779358 11.382599,-27.504852c0.004486,-10.73288 -4.355316,-20.486435 -11.397522,-27.513664zm8.473572,-8.47345c-1.527954,-1.52037 -3.985947,-1.513 -5.499115,0.007545c-1.520569,1.513184 -1.520569,3.978615 0.009033,5.496033l-0.009033,0c7.813248,7.812088 12.631577,18.56102 12.631577,30.483536c0,11.912109 -4.818329,22.6642 -12.622543,30.480377c-1.520752,1.516098 -1.520752,3.978821 0.007233,5.502106c0.753586,0.755249 1.750519,1.132019 2.745911,1.132019s1.993881,-0.381165 2.753174,-1.139252c9.188538,-9.200439 14.897003,-21.944733 14.889435,-35.97525c0.007568,-14.042267 -5.700897,-26.789581 -14.90567,-35.987114z" stroke-width="5" stroke="#191919" fill="url(#svg_3)"/>
 </g>
</svg>